<?xml version="1.0" encoding="UTF-8"?>
<svg xmlns="http://www.w3.org/2000/svg" viewBox="0 0 24 24" width="32" height="32" fill="#e11d48" stroke="#be123c" stroke-width="1">
  <path d="M20.995 6.9a.998.998 0 0 0-.548-.795l-8-4a1 1 0 0 0-.895 0l-8 4a1.002 1.002 0 0 0-.547.795c-.011.107-.961 10.767 8.589 15.014a.987.987 0 0 0 .812 0c9.55-4.247 8.6-14.906 8.589-15.014zM12 19.95C5.258 16.84 4.524 9.35 4.525 7.15l7.475-3.737 7.475 3.737c0 2.218-.764 9.675-7.475 12.8z"></path>
  <path fill="none" stroke="#ffffff" stroke-width="2" d="M9 12l2 2 4-4" stroke-linecap="round" stroke-linejoin="round"/>
</svg>